<mxfile host="app.diagrams.net" modified="2023-04-06T06:17:02.374Z" agent="Mozilla/5.0 (Macintosh; Intel Mac OS X 10_15_7) AppleWebKit/537.36 (KHTML, like Gecko) Chrome/111.0.0.0 Safari/537.36" etag="gDZaViwtDM3j36FrgZHj" version="21.1.1" type="github">
  <diagram name="第 1 页" id="kEp3wRJRInudLF3USH4L">
    <mxGraphModel dx="1306" dy="746" grid="1" gridSize="10" guides="1" tooltips="1" connect="1" arrows="1" fold="1" page="1" pageScale="1" pageWidth="827" pageHeight="1169" math="0" shadow="0">
      <root>
        <mxCell id="0" />
        <mxCell id="1" parent="0" />
        <mxCell id="5K3wB7KC8CeaGGnO3pnq-1" value="中国企业&lt;br&gt;Redis" style="shape=datastore;whiteSpace=wrap;html=1;fillColor=none;" vertex="1" parent="1">
          <mxGeometry x="120" y="350" width="60" height="60" as="geometry" />
        </mxCell>
        <mxCell id="5K3wB7KC8CeaGGnO3pnq-2" value="海外&lt;br&gt;Redis" style="shape=datastore;whiteSpace=wrap;html=1;fillColor=none;" vertex="1" parent="1">
          <mxGeometry x="440" y="350" width="60" height="60" as="geometry" />
        </mxCell>
        <mxCell id="5K3wB7KC8CeaGGnO3pnq-3" value="去重" style="shape=datastore;whiteSpace=wrap;html=1;fillColor=none;" vertex="1" parent="1">
          <mxGeometry x="280" y="280" width="60" height="60" as="geometry" />
        </mxCell>
        <mxCell id="5K3wB7KC8CeaGGnO3pnq-4" value="预定会议" style="rounded=1;whiteSpace=wrap;html=1;fillColor=none;" vertex="1" parent="1">
          <mxGeometry x="110" y="200" width="80" height="40" as="geometry" />
        </mxCell>
        <mxCell id="5K3wB7KC8CeaGGnO3pnq-5" value="预定会议" style="rounded=1;whiteSpace=wrap;html=1;fillColor=none;" vertex="1" parent="1">
          <mxGeometry x="430" y="200" width="80" height="40" as="geometry" />
        </mxCell>
        <mxCell id="5K3wB7KC8CeaGGnO3pnq-6" value="" style="endArrow=classic;html=1;rounded=0;exitX=0.5;exitY=1;exitDx=0;exitDy=0;" edge="1" parent="1" source="5K3wB7KC8CeaGGnO3pnq-4" target="5K3wB7KC8CeaGGnO3pnq-1">
          <mxGeometry width="50" height="50" relative="1" as="geometry">
            <mxPoint x="390" y="410" as="sourcePoint" />
            <mxPoint x="440" y="360" as="targetPoint" />
          </mxGeometry>
        </mxCell>
        <mxCell id="5K3wB7KC8CeaGGnO3pnq-8" value="" style="endArrow=classic;html=1;rounded=0;exitX=0.5;exitY=1;exitDx=0;exitDy=0;" edge="1" parent="1">
          <mxGeometry width="50" height="50" relative="1" as="geometry">
            <mxPoint x="469.5" y="240" as="sourcePoint" />
            <mxPoint x="470" y="350" as="targetPoint" />
          </mxGeometry>
        </mxCell>
        <mxCell id="5K3wB7KC8CeaGGnO3pnq-9" value="MySQL" style="shape=datastore;whiteSpace=wrap;html=1;fillColor=none;" vertex="1" parent="1">
          <mxGeometry x="280" y="490" width="60" height="60" as="geometry" />
        </mxCell>
        <mxCell id="5K3wB7KC8CeaGGnO3pnq-10" value="" style="endArrow=classic;html=1;rounded=0;exitX=0.5;exitY=0;exitDx=0;exitDy=0;entryX=0.5;entryY=1;entryDx=0;entryDy=0;" edge="1" parent="1" source="5K3wB7KC8CeaGGnO3pnq-9" target="5K3wB7KC8CeaGGnO3pnq-3">
          <mxGeometry width="50" height="50" relative="1" as="geometry">
            <mxPoint x="160" y="250" as="sourcePoint" />
            <mxPoint x="160" y="390" as="targetPoint" />
          </mxGeometry>
        </mxCell>
        <mxCell id="5K3wB7KC8CeaGGnO3pnq-11" value="dump" style="rounded=0;whiteSpace=wrap;html=1;fillColor=none;gradientColor=default;strokeColor=none;" vertex="1" parent="1">
          <mxGeometry x="310" y="430" width="56" height="20" as="geometry" />
        </mxCell>
        <mxCell id="5K3wB7KC8CeaGGnO3pnq-12" value="" style="endArrow=classic;html=1;rounded=0;exitX=1;exitY=0;exitDx=0;exitDy=0;entryX=0.033;entryY=0.95;entryDx=0;entryDy=0;entryPerimeter=0;" edge="1" parent="1" source="5K3wB7KC8CeaGGnO3pnq-25" target="5K3wB7KC8CeaGGnO3pnq-3">
          <mxGeometry width="50" height="50" relative="1" as="geometry">
            <mxPoint x="220" y="510" as="sourcePoint" />
            <mxPoint x="220" y="360" as="targetPoint" />
          </mxGeometry>
        </mxCell>
        <mxCell id="5K3wB7KC8CeaGGnO3pnq-13" value="" style="endArrow=classic;html=1;rounded=0;exitX=0;exitY=0;exitDx=0;exitDy=0;entryX=0.85;entryY=0.95;entryDx=0;entryDy=0;entryPerimeter=0;" edge="1" parent="1" source="5K3wB7KC8CeaGGnO3pnq-26" target="5K3wB7KC8CeaGGnO3pnq-3">
          <mxGeometry width="50" height="50" relative="1" as="geometry">
            <mxPoint x="190" y="420" as="sourcePoint" />
            <mxPoint x="292" y="347" as="targetPoint" />
          </mxGeometry>
        </mxCell>
        <mxCell id="5K3wB7KC8CeaGGnO3pnq-14" value="历史会议" style="rounded=1;whiteSpace=wrap;html=1;fillColor=none;" vertex="1" parent="1">
          <mxGeometry x="358" y="610" width="80" height="40" as="geometry" />
        </mxCell>
        <mxCell id="5K3wB7KC8CeaGGnO3pnq-15" value="" style="endArrow=classic;html=1;rounded=0;exitX=0.85;exitY=0.95;exitDx=0;exitDy=0;entryX=0.5;entryY=0;entryDx=0;entryDy=0;exitPerimeter=0;" edge="1" parent="1" source="5K3wB7KC8CeaGGnO3pnq-9" target="5K3wB7KC8CeaGGnO3pnq-14">
          <mxGeometry width="50" height="50" relative="1" as="geometry">
            <mxPoint x="190" y="420" as="sourcePoint" />
            <mxPoint x="292" y="347" as="targetPoint" />
          </mxGeometry>
        </mxCell>
        <mxCell id="5K3wB7KC8CeaGGnO3pnq-16" value="中国个人&lt;br&gt;Redis" style="shape=datastore;whiteSpace=wrap;html=1;fillColor=none;" vertex="1" parent="1">
          <mxGeometry x="20" y="350" width="60" height="60" as="geometry" />
        </mxCell>
        <mxCell id="5K3wB7KC8CeaGGnO3pnq-17" value="" style="endArrow=classic;html=1;rounded=0;entryX=0.5;entryY=0;entryDx=0;entryDy=0;dashed=1;" edge="1" parent="1" target="5K3wB7KC8CeaGGnO3pnq-16">
          <mxGeometry width="50" height="50" relative="1" as="geometry">
            <mxPoint x="120" y="240" as="sourcePoint" />
            <mxPoint x="160" y="390" as="targetPoint" />
          </mxGeometry>
        </mxCell>
        <mxCell id="5K3wB7KC8CeaGGnO3pnq-18" value="" style="endArrow=classic;html=1;rounded=0;entryX=0;entryY=0.3;entryDx=0;entryDy=0;dashed=1;exitX=1;exitY=0.75;exitDx=0;exitDy=0;" edge="1" parent="1" source="5K3wB7KC8CeaGGnO3pnq-4" target="5K3wB7KC8CeaGGnO3pnq-3">
          <mxGeometry width="50" height="50" relative="1" as="geometry">
            <mxPoint x="130" y="250" as="sourcePoint" />
            <mxPoint x="60" y="390" as="targetPoint" />
          </mxGeometry>
        </mxCell>
        <mxCell id="5K3wB7KC8CeaGGnO3pnq-19" value="" style="endArrow=classic;html=1;rounded=0;entryX=1;entryY=0.3;entryDx=0;entryDy=0;dashed=1;exitX=0;exitY=1;exitDx=0;exitDy=0;" edge="1" parent="1" source="5K3wB7KC8CeaGGnO3pnq-5" target="5K3wB7KC8CeaGGnO3pnq-3">
          <mxGeometry width="50" height="50" relative="1" as="geometry">
            <mxPoint x="200" y="238" as="sourcePoint" />
            <mxPoint x="293" y="293" as="targetPoint" />
          </mxGeometry>
        </mxCell>
        <mxCell id="5K3wB7KC8CeaGGnO3pnq-20" value="多AZ部署" style="rounded=1;whiteSpace=wrap;html=1;fillColor=#d5e8d4;sketch=1;curveFitting=1;jiggle=2;strokeColor=#82b366;" vertex="1" parent="1">
          <mxGeometry x="272" y="240" width="70" height="40" as="geometry" />
        </mxCell>
        <mxCell id="5K3wB7KC8CeaGGnO3pnq-24" value="setNx" style="rounded=0;whiteSpace=wrap;html=1;fillColor=none;gradientColor=default;strokeColor=none;" vertex="1" parent="1">
          <mxGeometry x="190" y="420" width="56" height="20" as="geometry" />
        </mxCell>
        <mxCell id="5K3wB7KC8CeaGGnO3pnq-25" value="AfterResponse" style="rounded=1;whiteSpace=wrap;html=1;fillColor=none;" vertex="1" parent="1">
          <mxGeometry x="110" y="490" width="80" height="40" as="geometry" />
        </mxCell>
        <mxCell id="5K3wB7KC8CeaGGnO3pnq-26" value="AfterResponse" style="rounded=1;whiteSpace=wrap;html=1;fillColor=none;" vertex="1" parent="1">
          <mxGeometry x="430" y="490" width="80" height="40" as="geometry" />
        </mxCell>
        <mxCell id="5K3wB7KC8CeaGGnO3pnq-27" value="" style="endArrow=classic;html=1;rounded=0;entryX=0.5;entryY=0;entryDx=0;entryDy=0;dashed=1;exitX=0.5;exitY=1;exitDx=0;exitDy=0;" edge="1" parent="1" source="5K3wB7KC8CeaGGnO3pnq-1" target="5K3wB7KC8CeaGGnO3pnq-25">
          <mxGeometry width="50" height="50" relative="1" as="geometry">
            <mxPoint x="130" y="250" as="sourcePoint" />
            <mxPoint x="60" y="390" as="targetPoint" />
          </mxGeometry>
        </mxCell>
        <mxCell id="5K3wB7KC8CeaGGnO3pnq-28" value="" style="endArrow=classic;html=1;rounded=0;entryX=0.5;entryY=0;entryDx=0;entryDy=0;dashed=1;exitX=0.5;exitY=1;exitDx=0;exitDy=0;" edge="1" parent="1">
          <mxGeometry width="50" height="50" relative="1" as="geometry">
            <mxPoint x="469.5" y="410" as="sourcePoint" />
            <mxPoint x="469.5" y="490" as="targetPoint" />
          </mxGeometry>
        </mxCell>
        <mxCell id="5K3wB7KC8CeaGGnO3pnq-29" value="setNx" style="rounded=0;whiteSpace=wrap;html=1;fillColor=none;gradientColor=default;strokeColor=none;" vertex="1" parent="1">
          <mxGeometry x="390" y="420" width="56" height="20" as="geometry" />
        </mxCell>
        <mxCell id="5K3wB7KC8CeaGGnO3pnq-31" value="" style="endArrow=classic;html=1;rounded=0;entryX=1;entryY=0.7;entryDx=0;entryDy=0;dashed=1;exitX=0.25;exitY=1;exitDx=0;exitDy=0;" edge="1" parent="1" source="5K3wB7KC8CeaGGnO3pnq-5" target="5K3wB7KC8CeaGGnO3pnq-1">
          <mxGeometry width="50" height="50" relative="1" as="geometry">
            <mxPoint x="440" y="250" as="sourcePoint" />
            <mxPoint x="350" y="308" as="targetPoint" />
          </mxGeometry>
        </mxCell>
        <mxCell id="5K3wB7KC8CeaGGnO3pnq-32" value="中国企业&lt;br&gt;Redis" style="shape=datastore;whiteSpace=wrap;html=1;fillColor=none;" vertex="1" parent="1">
          <mxGeometry x="210" y="860" width="60" height="60" as="geometry" />
        </mxCell>
        <mxCell id="5K3wB7KC8CeaGGnO3pnq-33" value="海外&lt;br&gt;Redis" style="shape=datastore;whiteSpace=wrap;html=1;fillColor=none;" vertex="1" parent="1">
          <mxGeometry x="560" y="860" width="60" height="60" as="geometry" />
        </mxCell>
        <mxCell id="5K3wB7KC8CeaGGnO3pnq-34" value="中国个人&lt;br&gt;Redis" style="shape=datastore;whiteSpace=wrap;html=1;fillColor=none;dashed=1;dashPattern=12 12;" vertex="1" parent="1">
          <mxGeometry x="330" y="860" width="60" height="60" as="geometry" />
        </mxCell>
        <mxCell id="5K3wB7KC8CeaGGnO3pnq-35" value="" style="curved=1;endArrow=classic;html=1;rounded=0;entryX=0.017;entryY=0.075;entryDx=0;entryDy=0;entryPerimeter=0;exitX=0.967;exitY=0.125;exitDx=0;exitDy=0;exitPerimeter=0;" edge="1" parent="1" source="5K3wB7KC8CeaGGnO3pnq-32" target="5K3wB7KC8CeaGGnO3pnq-32">
          <mxGeometry width="50" height="50" relative="1" as="geometry">
            <mxPoint x="300" y="810" as="sourcePoint" />
            <mxPoint x="350" y="760" as="targetPoint" />
            <Array as="points">
              <mxPoint x="260" y="830" />
              <mxPoint x="230" y="830" />
            </Array>
          </mxGeometry>
        </mxCell>
        <mxCell id="5K3wB7KC8CeaGGnO3pnq-36" value="" style="curved=1;endArrow=classic;html=1;rounded=0;entryX=0.017;entryY=0.075;entryDx=0;entryDy=0;entryPerimeter=0;exitX=0.5;exitY=0;exitDx=0;exitDy=0;" edge="1" parent="1" source="5K3wB7KC8CeaGGnO3pnq-33">
          <mxGeometry width="50" height="50" relative="1" as="geometry">
            <mxPoint x="327" y="868" as="sourcePoint" />
            <mxPoint x="270" y="865" as="targetPoint" />
            <Array as="points">
              <mxPoint x="530" y="790" />
              <mxPoint x="299" y="800" />
            </Array>
          </mxGeometry>
        </mxCell>
        <mxCell id="5K3wB7KC8CeaGGnO3pnq-37" value="shadowkey" style="rounded=0;whiteSpace=wrap;html=1;fillColor=none;gradientColor=default;strokeColor=none;" vertex="1" parent="1">
          <mxGeometry x="400" y="770" width="56" height="20" as="geometry" />
        </mxCell>
        <mxCell id="5K3wB7KC8CeaGGnO3pnq-38" value="shadowkey" style="rounded=0;whiteSpace=wrap;html=1;fillColor=none;gradientColor=default;strokeColor=none;" vertex="1" parent="1">
          <mxGeometry x="216" y="800" width="56" height="20" as="geometry" />
        </mxCell>
        <mxCell id="5K3wB7KC8CeaGGnO3pnq-39" value="" style="curved=1;endArrow=classic;html=1;rounded=0;entryX=0.15;entryY=0.95;entryDx=0;entryDy=0;exitX=0.85;exitY=0.95;exitDx=0;exitDy=0;exitPerimeter=0;entryPerimeter=0;" edge="1" parent="1" source="5K3wB7KC8CeaGGnO3pnq-32" target="5K3wB7KC8CeaGGnO3pnq-33">
          <mxGeometry width="50" height="50" relative="1" as="geometry">
            <mxPoint x="310" y="1040" as="sourcePoint" />
            <mxPoint x="-10" y="1045" as="targetPoint" />
            <Array as="points">
              <mxPoint x="410" y="990" />
            </Array>
          </mxGeometry>
        </mxCell>
        <mxCell id="5K3wB7KC8CeaGGnO3pnq-40" value="" style="curved=1;endArrow=classic;html=1;rounded=0;entryX=0.283;entryY=0.975;entryDx=0;entryDy=0;entryPerimeter=0;exitX=1;exitY=0.925;exitDx=0;exitDy=0;exitPerimeter=0;" edge="1" parent="1" source="5K3wB7KC8CeaGGnO3pnq-33" target="5K3wB7KC8CeaGGnO3pnq-33">
          <mxGeometry width="50" height="50" relative="1" as="geometry">
            <mxPoint x="597" y="998" as="sourcePoint" />
            <mxPoint x="540" y="995" as="targetPoint" />
            <Array as="points">
              <mxPoint x="620" y="960" />
              <mxPoint x="600" y="960" />
              <mxPoint x="570" y="940" />
            </Array>
          </mxGeometry>
        </mxCell>
        <mxCell id="5K3wB7KC8CeaGGnO3pnq-42" value="shadowkey" style="rounded=0;whiteSpace=wrap;html=1;fillColor=none;gradientColor=default;strokeColor=none;" vertex="1" parent="1">
          <mxGeometry x="400" y="960" width="56" height="20" as="geometry" />
        </mxCell>
      </root>
    </mxGraphModel>
  </diagram>
</mxfile>
